<svg xmlns="http://www.w3.org/2000/svg" xmlns:xlink="http://www.w3.org/1999/xlink" viewBox="0 0 149.96 149.96"><defs><style>.cls-1{fill:#e72635;}.cls-2{fill:url(#Dégradé_sans_nom_6);}.cls-3{fill:#009aff;}.cls-4{fill:url(#Dégradé_sans_nom_6-2);}.cls-5{fill:url(#Dégradé_sans_nom_6-3);}</style><linearGradient id="Dégradé_sans_nom_6" x1="55.39" y1="55.39" x2="117.57" y2="117.57" gradientUnits="userSpaceOnUse"><stop offset="0" stop-color="#fff" stop-opacity="0"/><stop offset="0.03" stop-color="#ededed" stop-opacity="0.02"/><stop offset="1" stop-opacity="0.3"/></linearGradient><linearGradient id="Dégradé_sans_nom_6-2" x1="16.22" y1="16.22" x2="78.4" y2="78.4" xlink:href="#Dégradé_sans_nom_6"/><linearGradient id="Dégradé_sans_nom_6-3" x1="67.88" y1="82.08" x2="71.3" y2="85.5" xlink:href="#Dégradé_sans_nom_6"/></defs><title>RVB</title><g id="Calque_2" data-name="Calque 2"><g id="Calque_1-2" data-name="Calque 1"><path class="cls-1" d="M133.73,55.39a55.39,55.39,0,1,0,0,78.34A55.39,55.39,0,0,0,133.73,55.39ZM88.34,126.54q-1.54-.3-3.05-.75t-3-1a32.32,32.32,0,0,1-5.67-3c-.51-.34-1-.69-1.5-1.06q-1.18-.88-2.3-1.88c-.45-.4-.88-.81-1.31-1.24h0a32.64,32.64,0,0,1-5-6.48q-.41-.69-.78-1.4a32.59,32.59,0,0,1,44-44q.71.37,1.4.78a32.64,32.64,0,0,1,6.48,5h0c.43.43.84.87,1.24,1.31q1,1.11,1.88,2.3c.37.49.72,1,1.06,1.5a32.34,32.34,0,0,1,3,5.67q.6,1.47,1,3t.75,3.05a32.58,32.58,0,0,1-38.2,38.2Z"/><path class="cls-2" d="M117.6,55.39a44,44,0,1,0-1.22,63.36A32.58,32.58,0,1,1,94.81,62h0a32.57,32.57,0,0,1,24,54.39A44,44,0,0,0,117.6,55.39ZM62,94.78v0h0Z"/><path class="cls-3" d="M40.15,84.17a32.44,32.44,0,0,1-6.58-4.59Q33,79,32.36,78.43T31.2,77.21a32.58,32.58,0,0,1,46-46q.62.56,1.22,1.16t1.16,1.22a32.39,32.39,0,0,1,7,12.54q.45,1.51.75,3.05A32.58,32.58,0,0,1,62.86,87.1a32.65,32.65,0,0,0,2.86,22.61l.05.1a55.45,55.45,0,1,0-24.71-.91A55.67,55.67,0,0,1,40.15,84.17Z"/><path class="cls-4" d="M78.43,16.22a44,44,0,1,0-39.1,74.34,55.57,55.57,0,0,1,.82-6.38A32.59,32.59,0,0,1,22.82,55.61s0,.07,0,.1a32.55,32.55,0,0,1,32.9-32.89h-.06A32.57,32.57,0,0,1,79.59,77.21,44,44,0,0,0,78.43,16.22Z"/><path class="cls-5" d="M62.56,88.58a43.77,43.77,0,0,0,14.65-9A32.38,32.38,0,0,1,62.86,87.1C62.74,87.59,62.66,88.09,62.56,88.58Z"/></g></g></svg>